PathFileType	4	(X/Y/Z)	Patient4_TMGait_0pt7_02_left_31.trc.trc
DataRate	CameraRate	NumFrames	NumMarkers	Units	OrigDataRate	OrigDataStartFrame	OrigNumFrames
87.500000000000	87.500000000000	4	33	mm	87.500000000000	36	       141
Frame#	Time	Sacral			L.Shoulder			Chest			R.Shoulder			Neck			R.ASIS			L.ASIS			R.Thigh.Superior			R.Thigh.Lateral			R.Thigh.Inferior			R.Patella			L.Thigh.Superior			L.Thigh.Lateral			L.Thigh.Inferior			L.Patella			L.Shank.Superior			L.Shank.Lateral			L.Shank.Inferior			R.Shank.Superior			R.Shank.Lateral			R.Shank.Inferior			R.Heel			R.Midfoot.Superior			R.Midfoot.Lateral			R.Toe			L.Heel			L.Midfoot.Lateral			L.Midfoot.Superior			L.Toe			L.Elbow			L.Wrist			R.Elbow			R.Wrist			
		X1	Y1	Z1	X2	Y2	Z2	X3	Y3	Z3	X4	Y4	Z4	X5	Y5	Z5	X6	Y6	Z6	X7	Y7	Z7	X8	Y8	Z8	X9	Y9	Z9	X10	Y10	Z10	X11	Y11	Z11	X12	Y12	Z12	X13	Y13	Z13	X14	Y14	Z14	X15	Y15	Z15	X16	Y16	Z16	X17	Y17	Z17	X18	Y18	Z18	X19	Y19	Z19	X20	Y20	Z20	X21	Y21	Z21	X22	Y22	Z22	X23	Y23	Z23	X24	Y24	Z24	X25	Y25	Z25	X26	Y26	Z26	X27	Y27	Z27	X28	Y28	Z28	X29	Y29	Z29	X30	Y30	Z30	X31	Y31	Z31	X32	Y32	Z32	X33	Y33	Z33	

36	35.830000000000	844.132993572244	1016.641363424474	475.443231954192	1041.706804363027	1428.215627434518	290.535241791168	1149.764197294806	1351.113339998220	445.979780238375	1082.942589819770	1434.524239435799	621.982879698018	1056.786463768365	1488.120635649099	444.734186487785	1061.055021233606	938.761110940807	597.364001356336	1057.283492293455	949.720530620863	322.399826724601	1058.238638610530	726.008887405334	585.963287187531	949.310105002260	635.921227901906	644.142320089234	1019.948888631866	563.100820828647	576.255224065022	996.790727408197	465.232354516560	591.359051749355	1122.611187288893	767.035033643621	361.502540248490	1059.367380777759	639.849405903772	289.849420302601	1154.312618288779	573.793905087531	353.974194105962	1166.291443695407	502.680395512621	360.147372838818	1145.254821608784	428.077110849797	350.563300406177	1067.663620812074	307.515526794318	293.537173343709	1127.558220993872	199.160650057080	363.336184599582	930.791436945864	396.143368121107	594.973097216769	817.737569588301	335.641120854705	652.860040369459	824.831996428883	226.166228035524	599.281248849465	637.732004657971	113.393573730456	568.935530245703	817.754031655281	108.965112596903	606.057268448643	713.952970208075	72.210430698744	638.917265048978	912.256939592848	34.052454750197	622.809941583397	1010.222481623705	38.529719015712	396.504231376814	1089.360127613370	36.599612644897	320.346887444962	1169.743430792407	98.010430334557	352.540479100589	1300.427024904794	46.056671550110	333.117990755388	887.354219283930	1115.026867374465	186.490279041588	853.967637478229	854.544494870975	206.649735205785	1154.872911451865	1102.011983232382	740.744392124873	1353.996273261923	1176.161266092374	611.453729165815	
37	35.841428571429	844.219997151803	1018.269457188550	472.159693684043	1042.875058063658	1429.465966356724	287.418108013954	1150.378578141839	1352.675914479241	443.302200187255	1082.903529468651	1436.328921253100	618.998914684528	1057.292911429003	1489.585393285302	441.503711705108	1060.940529155080	940.310658441014	594.520377469108	1058.010420844237	951.077396487553	319.896412732016	1062.554901947866	728.055113124302	583.920717143915	956.074355560254	635.901626339464	642.546088052397	1028.854091373214	564.007935137411	575.063434063096	1006.501870335910	464.208451385101	591.601252080974	1121.588841371519	766.192772170180	357.578748940190	1055.209474022685	639.791949256007	287.649308220707	1149.538950211555	572.711193994496	351.472757946992	1160.527004250328	501.954353978303	358.330609672911	1139.278151607881	427.677810373946	348.944136459032	1061.126815240558	307.320681306704	292.250858994013	1120.381705476080	198.991640213970	362.644063022011	937.756849447117	396.502860781175	594.700625262326	822.262276976285	340.249779845819	652.035295335149	826.039555805868	230.340648026231	599.254265769785	635.574144429063	125.495938803366	568.064631208886	814.611455355361	112.126744513892	606.168505492113	709.167725552013	80.259481884982	638.207025343782	904.830178997957	33.111075061941	623.225177415171	1002.356829724217	38.495220404564	396.360327778005	1081.483060706255	36.528255581578	320.178334062828	1161.874456702428	97.966673820538	352.306762218749	1292.589068138852	45.956287815687	332.942388721449	894.251705433747	1113.352900177105	181.357912440952	870.949586618266	851.690833808499	200.742892437043	1146.505528216257	1102.660675140153	740.553773279182	1348.084449643430	1169.886289383328	611.302688041442	
38	35.852857142857	844.031809021069	1019.699656495006	468.995599162871	1044.106162951607	1430.511101848914	284.323335913217	1150.866000180798	1354.065316666121	440.770162054750	1082.562070585773	1438.034588804430	616.064225753462	1057.676135440709	1490.889264270888	438.260596584385	1060.643160206525	941.715508283133	591.900351945511	1058.507226476513	952.269807398616	317.598301690365	1067.363488772649	730.282889865231	581.862848829613	963.712354346856	635.828611508023	640.995188160883	1038.661946684386	565.080883045220	573.792934316437	1017.270601252664	463.369260081915	591.603684239091	1120.208398775734	765.107182920486	353.615728921477	1050.652897624843	639.637735394550	285.532703524870	1144.412188007352	571.587094163167	349.007440066022	1154.414724893162	501.205287722948	356.497667982067	1132.988437389900	427.265315906159	347.307805685286	1054.290287555854	307.063130271978	291.033146917852	1113.059241647398	198.808345490444	361.953164713072	945.809842410391	396.980541251652	594.199016320045	827.996829921649	345.159157036108	650.946405265493	828.215154841926	235.013412023112	598.856892208438	634.649282959850	138.666730679265	566.594308720966	812.165275671879	116.064666414670	605.926717089035	705.207925092528	89.480886335732	637.064296531860	897.812798634912	32.308128381959	623.711358122141	994.438983600327	38.468389679407	396.266686553841	1073.549707574180	36.433174113788	320.058904645861	1153.980271451449	97.856084929739	352.109917275264	1284.707953565457	45.743727225005	332.807732505661	901.400717838579	1111.582342537396	176.162271106248	888.724626280631	849.107727530182	194.790269972662	1137.482687245358	1103.350738542271	740.330360520158	1342.018961333459	1162.217236347583	611.653171917745	
39	35.864285714286	843.604085153469	1020.891297161309	466.003296447912	1045.376961943841	1431.323394208926	281.274455974304	1151.211374626783	1355.242962444336	438.403289240164	1081.931595885920	1439.619087817823	613.196561399833	1057.937424937201	1492.013732903895	435.029791487573	1060.171615522220	942.931245933309	589.516327210516	1058.741695491904	953.296263028062	315.478359925185	1072.545868053176	732.713771474413	579.769946320224	972.118121904886	635.789527011885	639.494087295821	1049.207131063977	566.401510309976	572.427430710423	1028.963606861640	462.828448961667	591.345619029109	1118.487361304786	763.883245546883	349.739117429887	1045.880413881881	639.478335111686	283.480946241459	1139.049183856306	570.485745521045	346.611675319834	1148.066254549235	500.464608904820	354.642358994795	1126.489151913725	426.853694576296	345.656887688630	1047.249530718219	306.777416378316	289.850018706701	1105.632824836580	198.620428504547	361.250879506079	954.873727847764	397.639339438410	593.473220088670	834.876629580384	350.364574107230	649.567872005928	831.389688196849	240.183820632289	598.073174906754	635.060029100376	152.700048502860	564.516882419149	810.553749139783	120.831356622335	605.314381589760	702.254959498651	99.767507155989	635.465618607810	891.412986681222	31.840210602948	624.192916114405	986.470166968457	38.456451841154	396.193985851131	1065.565456661851	36.326901823726	319.964047928582	1146.059158181262	97.701608661468	351.930694820522	1276.784424232475	45.453486965177	332.702917482434	908.854888008550	1109.678572653926	170.912798375867	907.251533608720	846.822340076744	188.845901969629	1127.874875840523	1104.062597825926	740.015277775283	1335.723275854433	1153.161174484185	612.538471464161	
